<svg xmlns="http://www.w3.org/2000/svg" width="56" height="56" viewBox="0 0 56 56">
  <path fill="none" stroke="#8F1818" d="M27.9547694,12.9155606 L28.0452306,12.9155606 L28.0452306,8.99411539 L30.7702137,8.99411539 L30.7702137,4.51823624 L35.0740452,4.51823624 L35.0740452,0.5 L41.2615454,0.5 L41.2615454,4.51823624 L46.8847998,4.51823624 L46.8847998,8.99411539 L52.4654921,8.99411539 L52.4654921,15.7497516 L55.5,15.7497516 L55.5,24.3934217 L52.4654921,24.3934217 L52.4654921,26.9719851 L51.9263782,26.9296817 C50.8021122,26.8414626 49.9613618,26.7974812 49.4090523,26.7974812 C49.2717173,26.7974812 49.1538947,26.8002511 49.0569057,26.8054296 L49.0569057,29.3339189 L46.3995258,29.3339189 L46.3995258,32.050248 L44.9289733,32.050248 L44.9289733,36.6103935 L41.9241257,36.6103935 L41.9241257,40.692097 L38.8284163,40.692097 L38.8284163,43.930116 L36.0740452,43.930116 L36.0740452,49.2254827 L32.7913456,49.2254827 L32.7913456,51.791136 L30.2824541,51.791136 L30.2824541,55.5 L25.7175459,55.5 L25.7175459,51.791136 L23.2086544,51.791136 L23.2086544,49.2254827 L19.9259548,49.2254827 L19.9259548,43.930116 L17.1715837,43.930116 L17.1715837,40.692097 L14.0758743,40.692097 L14.0758743,36.6103935 L11.0588593,36.6103935 L11.1765421,31.7162719 L6.94309425,31.7162719 L6.94309425,26.931214 L3.53450794,26.931214 L3.53450794,24.3934217 L0.5,24.3934217 L0.5,15.7497516 L3.53450794,15.7497516 L3.53450794,8.99411539 L9.11520024,8.99411539 L9.11520024,4.51823624 L14.7384546,4.51823624 L14.7384546,0.5 L20.9259548,0.5 L20.9259548,4.51823624 L25.2297863,4.51823624 L25.2297863,8.99411539 L27.9547694,8.99411539 L27.9547694,12.9155606 Z"/>
</svg>
